<?xml version="1.0" encoding="UTF-8" standalone="no"?><svg xmlns="http://www.w3.org/2000/svg" xmlns:xlink="http://www.w3.org/1999/xlink" contentStyleType="text/css" height="250px" preserveAspectRatio="none" style="width:464px;height:250px;background:#00000000;" version="1.1" viewBox="0 0 464 250" width="464px" zoomAndPan="magnify"><defs/><g><!--MD5=[ca5e029fbe4a04f960903eee89740330]
entity www.javanile.org--><g id="elem_www.javanile.org"><rect fill="#0E0E0E" height="39.2969" rx="2.5" ry="2.5" style="stroke:#E7E7E7;stroke-width:0.5;" width="151" x="17.5" y="7"/><polygon fill="#0E0E0E" points="151.5,12,151.5,26,163.5,26,163.5,18,157.5,12,151.5,12" style="stroke:#E7E7E7;stroke-width:0.5;"/><line style="stroke:#E7E7E7;stroke-width:0.5;" x1="157.5" x2="157.5" y1="12" y2="18"/><line style="stroke:#E7E7E7;stroke-width:0.5;" x1="163.5" x2="157.5" y1="18" y2="18"/><text fill="#FFFFFF" font-family="sans-serif" font-size="14" lengthAdjust="spacing" textLength="121" x="27.5" y="32.9951">www.javanile.org</text></g><!--MD5=[30dd37e566842873dfc463407840466a]
entity github.com/javanile--><g id="elem_github.com/javanile"><rect fill="#0E0E0E" height="39.2969" rx="2.5" ry="2.5" style="stroke:#E7E7E7;stroke-width:0.5;" width="172" x="7" y="106"/><polygon fill="#0E0E0E" points="162,111,162,125,174,125,174,117,168,111,162,111" style="stroke:#E7E7E7;stroke-width:0.5;"/><line style="stroke:#E7E7E7;stroke-width:0.5;" x1="168" x2="168" y1="111" y2="117"/><line style="stroke:#E7E7E7;stroke-width:0.5;" x1="174" x2="168" y1="117" y2="117"/><text fill="#FFFFFF" font-family="sans-serif" font-size="14" lengthAdjust="spacing" textLength="142" x="17" y="131.9951">github.com/javanile</text></g><!--MD5=[92304504875fcf1264b23e7d9d2a9ea1]
entity github.com/francescobianco--><g id="elem_github.com/francescobianco"><rect fill="#0E0E0E" height="39.2969" rx="2.5" ry="2.5" style="stroke:#E7E7E7;stroke-width:0.5;" width="236" x="214" y="106"/><polygon fill="#0E0E0E" points="433,111,433,125,445,125,445,117,439,111,433,111" style="stroke:#E7E7E7;stroke-width:0.5;"/><line style="stroke:#E7E7E7;stroke-width:0.5;" x1="439" x2="439" y1="111" y2="117"/><line style="stroke:#E7E7E7;stroke-width:0.5;" x1="445" x2="439" y1="117" y2="117"/><text fill="#FFFFFF" font-family="sans-serif" font-size="14" lengthAdjust="spacing" textLength="206" x="224" y="131.9951">github.com/francescobianco</text></g><!--MD5=[57accd1e9a9e04d906fb0d6e140ceaf9]
entity twitter.com/francescobianco--><g id="elem_twitter.com/francescobianco"><rect fill="#0E0E0E" height="39.2969" rx="2.5" ry="2.5" style="stroke:#E7E7E7;stroke-width:0.5;" width="240" x="212" y="7"/><polygon fill="#0E0E0E" points="435,12,435,26,447,26,447,18,441,12,435,12" style="stroke:#E7E7E7;stroke-width:0.5;"/><line style="stroke:#E7E7E7;stroke-width:0.5;" x1="441" x2="441" y1="12" y2="18"/><line style="stroke:#E7E7E7;stroke-width:0.5;" x1="447" x2="441" y1="18" y2="18"/><text fill="#FFFFFF" font-family="sans-serif" font-size="14" lengthAdjust="spacing" textLength="210" x="222" y="32.9951">twitter.com/francescobianco</text></g><!--MD5=[c778ebf107bd60e385cedf5bafad7936]
entity hardcode.blog--><g id="elem_hardcode.blog"><rect fill="#0E0E0E" height="39.2969" rx="2.5" ry="2.5" style="stroke:#E7E7E7;stroke-width:0.5;" width="134" x="265" y="205"/><polygon fill="#0E0E0E" points="382,210,382,224,394,224,394,216,388,210,382,210" style="stroke:#E7E7E7;stroke-width:0.5;"/><line style="stroke:#E7E7E7;stroke-width:0.5;" x1="388" x2="388" y1="210" y2="216"/><line style="stroke:#E7E7E7;stroke-width:0.5;" x1="394" x2="388" y1="216" y2="216"/><text fill="#FFFFFF" font-family="sans-serif" font-size="14" lengthAdjust="spacing" textLength="104" x="275" y="230.9951">hardcode.blog</text></g><!--MD5=[15353098e38023353bc458a516e3c309]
link www.javanile.org to github.com/javanile--><g id="link_www.javanile.org_github.com/javanile"><path d="M93,46.203 C93,61.769 93,84.021 93,100.827 " fill="none" id="www.javanile.org-to-github.com/javanile" style="stroke:#E7E7E7;stroke-width:1.0;"/><polygon fill="#E7E7E7" points="93,105.855,97,96.855,93,100.855,89,96.855,93,105.855" style="stroke:#E7E7E7;stroke-width:1.0;"/></g><!--MD5=[7b1bf087321ee0c4580eb6a7f1eab718]
link twitter.com/francescobianco to github.com/francescobianco--><g id="link_twitter.com/francescobianco_github.com/francescobianco"><path d="M332,46.203 C332,61.769 332,84.021 332,100.827 " fill="none" id="twitter.com/francescobianco-to-github.com/francescobianco" style="stroke:#E7E7E7;stroke-width:1.0;"/><polygon fill="#E7E7E7" points="332,105.855,336,96.855,332,100.855,328,96.855,332,105.855" style="stroke:#E7E7E7;stroke-width:1.0;"/></g><!--MD5=[6fdcf986397443689c3e0548259af419]
link github.com/francescobianco to hardcode.blog--><g id="link_github.com/francescobianco_hardcode.blog"><path d="M332,145.2026 C332,160.7688 332,183.021 332,199.8274 " fill="none" id="github.com/francescobianco-to-hardcode.blog" style="stroke:#E7E7E7;stroke-width:1.0;"/><polygon fill="#E7E7E7" points="332,204.8548,336,195.8548,332,199.8548,328,195.8548,332,204.8548" style="stroke:#E7E7E7;stroke-width:1.0;"/></g><!--MD5=[dd29b87f8c4b1ee5674f3c82a1cdd84e]
@startuml
skinparam monochrome reverse
skinparam backgroundcolor transparent

'== Assets =='

'- - Javanile - -'
artifact "www.javanile.org"
artifact "github.com/javanile"

'- - Francesco Bianco - -'
artifact "github.com/francescobianco"
artifact "twitter.com/francescobianco"
artifact "hardcode.blog"

'== Connections =='

[www.javanile.org] - -> [github.com/javanile]
[twitter.com/francescobianco] - -> [github.com/francescobianco]

[github.com/francescobianco] - -> [hardcode.blog]
@enduml

@startuml
skinparam monochrome reverse
skinparam backgroundcolor transparent


artifact "www.javanile.org"
artifact "github.com/javanile"

artifact "github.com/francescobianco"
artifact "twitter.com/francescobianco"
artifact "hardcode.blog"


[www.javanile.org] - -> [github.com/javanile]
[twitter.com/francescobianco] - -> [github.com/francescobianco]

[github.com/francescobianco] - -> [hardcode.blog]
@enduml

PlantUML version 1.2022.4beta2(Unknown compile time)
(GPL source distribution)
Java Runtime: Java(TM) SE Runtime Environment
JVM: Java HotSpot(TM) 64-Bit Server VM
Default Encoding: UTF-8
Language: en
Country: US
--></g></svg>