<?xml version="1.0" encoding="UTF-8" standalone="no"?><svg xmlns="http://www.w3.org/2000/svg" xmlns:xlink="http://www.w3.org/1999/xlink" contentStyleType="text/css" height="327px" preserveAspectRatio="none" style="width:388px;height:327px;background:#FFFFFF;" version="1.1" viewBox="0 0 388 327" width="388px" zoomAndPan="magnify"><defs/><g><line style="stroke:#181818;stroke-width:0.5;stroke-dasharray:5.0,5.0;" x1="25" x2="25" y1="81.2969" y2="246.9609"/><line style="stroke:#181818;stroke-width:0.5;stroke-dasharray:5.0,5.0;" x1="142" x2="142" y1="81.2969" y2="246.9609"/><line style="stroke:#181818;stroke-width:0.5;stroke-dasharray:5.0,5.0;" x1="197" x2="197" y1="81.2969" y2="246.9609"/><line style="stroke:#181818;stroke-width:0.5;stroke-dasharray:5.0,5.0;" x1="248" x2="248" y1="81.2969" y2="246.9609"/><line style="stroke:#181818;stroke-width:0.5;stroke-dasharray:5.0,5.0;" x1="298" x2="298" y1="81.2969" y2="246.9609"/><line style="stroke:#181818;stroke-width:0.5;stroke-dasharray:5.0,5.0;" x1="355" x2="355" y1="81.2969" y2="246.9609"/><text fill="#000000" font-family="sans-serif" font-size="14" lengthAdjust="spacing" textLength="35" x="5" y="77.9951">Foo1</text><ellipse cx="25.5" cy="13.5" fill="#E2E2F0" rx="8" ry="8" style="stroke:#181818;stroke-width:0.5;"/><path d="M25.5,21.5 L25.5,48.5 M12.5,29.5 L38.5,29.5 M25.5,48.5 L12.5,63.5 M25.5,48.5 L38.5,63.5 " fill="none" style="stroke:#181818;stroke-width:0.5;"/><text fill="#000000" font-family="sans-serif" font-size="14" lengthAdjust="spacing" textLength="35" x="5" y="258.9561">Foo1</text><ellipse cx="25.5" cy="270.7578" fill="#E2E2F0" rx="8" ry="8" style="stroke:#181818;stroke-width:0.5;"/><path d="M25.5,278.7578 L25.5,305.7578 M12.5,286.7578 L38.5,286.7578 M25.5,305.7578 L12.5,320.7578 M25.5,305.7578 L38.5,320.7578 " fill="none" style="stroke:#181818;stroke-width:0.5;"/><text fill="#000000" font-family="sans-serif" font-size="14" lengthAdjust="spacing" textLength="34" x="122.5" y="77.9951">Foo2</text><path d="M122,37 L122,61 M122,49 L139,49 " fill="none" style="stroke:#181818;stroke-width:0.5;"/><ellipse cx="151" cy="49" fill="#E2E2F0" rx="12" ry="12" style="stroke:#181818;stroke-width:0.5;"/><text fill="#000000" font-family="sans-serif" font-size="14" lengthAdjust="spacing" textLength="34" x="122.5" y="258.9561">Foo2</text><path d="M122,266.2578 L122,290.2578 M122,278.2578 L139,278.2578 " fill="none" style="stroke:#181818;stroke-width:0.5;"/><ellipse cx="151" cy="278.2578" fill="#E2E2F0" rx="12" ry="12" style="stroke:#181818;stroke-width:0.5;"/><text fill="#000000" font-family="sans-serif" font-size="14" lengthAdjust="spacing" textLength="35" x="177" y="77.9951">Foo3</text><ellipse cx="197.5" cy="49" fill="#E2E2F0" rx="12" ry="12" style="stroke:#181818;stroke-width:0.5;"/><polygon fill="#181818" points="193.5,37,199.5,32,197.5,37,199.5,42,193.5,37" style="stroke:#181818;stroke-width:1.0;"/><text fill="#000000" font-family="sans-serif" font-size="14" lengthAdjust="spacing" textLength="35" x="177" y="258.9561">Foo3</text><ellipse cx="197.5" cy="278.2578" fill="#E2E2F0" rx="12" ry="12" style="stroke:#181818;stroke-width:0.5;"/><polygon fill="#181818" points="193.5,266.2578,199.5,261.2578,197.5,266.2578,199.5,271.2578,193.5,266.2578" style="stroke:#181818;stroke-width:1.0;"/><text fill="#000000" font-family="sans-serif" font-size="14" lengthAdjust="spacing" textLength="34" x="228" y="77.9951">Foo4</text><ellipse cx="248" cy="49" fill="#E2E2F0" rx="12" ry="12" style="stroke:#181818;stroke-width:0.5;"/><line style="stroke:#181818;stroke-width:0.5;" x1="236" x2="260" y1="63" y2="63"/><text fill="#000000" font-family="sans-serif" font-size="14" lengthAdjust="spacing" textLength="34" x="228" y="258.9561">Foo4</text><ellipse cx="248" cy="278.2578" fill="#E2E2F0" rx="12" ry="12" style="stroke:#181818;stroke-width:0.5;"/><line style="stroke:#181818;stroke-width:0.5;" x1="236" x2="260" y1="292.2578" y2="292.2578"/><text fill="#000000" font-family="sans-serif" font-size="14" lengthAdjust="spacing" textLength="35" x="278" y="77.9951">Foo5</text><path d="M280.5,29 C280.5,19 298.5,19 298.5,19 C298.5,19 316.5,19 316.5,29 L316.5,55 C316.5,65 298.5,65 298.5,65 C298.5,65 280.5,65 280.5,55 L280.5,29 " fill="#E2E2F0" style="stroke:#181818;stroke-width:1.5;"/><path d="M280.5,29 C280.5,39 298.5,39 298.5,39 C298.5,39 316.5,39 316.5,29 " fill="none" style="stroke:#181818;stroke-width:1.5;"/><text fill="#000000" font-family="sans-serif" font-size="14" lengthAdjust="spacing" textLength="35" x="278" y="258.9561">Foo5</text><path d="M280.5,272.2578 C280.5,262.2578 298.5,262.2578 298.5,262.2578 C298.5,262.2578 316.5,262.2578 316.5,272.2578 L316.5,298.2578 C316.5,308.2578 298.5,308.2578 298.5,308.2578 C298.5,308.2578 280.5,308.2578 280.5,298.2578 L280.5,272.2578 " fill="#E2E2F0" style="stroke:#181818;stroke-width:1.5;"/><path d="M280.5,272.2578 C280.5,282.2578 298.5,282.2578 298.5,282.2578 C298.5,282.2578 316.5,282.2578 316.5,272.2578 " fill="none" style="stroke:#181818;stroke-width:1.5;"/><rect fill="#E2E2F0" height="30.2969" style="stroke:#181818;stroke-width:0.5;" width="49" x="333" y="46"/><rect fill="#E2E2F0" height="30.2969" style="stroke:#181818;stroke-width:0.5;" width="49" x="329" y="50"/><text fill="#000000" font-family="sans-serif" font-size="14" lengthAdjust="spacing" textLength="35" x="336" y="69.9951">Foo6</text><rect fill="#E2E2F0" height="30.2969" style="stroke:#181818;stroke-width:0.5;" width="49" x="333" y="245.9609"/><rect fill="#E2E2F0" height="30.2969" style="stroke:#181818;stroke-width:0.5;" width="49" x="329" y="249.9609"/><text fill="#000000" font-family="sans-serif" font-size="14" lengthAdjust="spacing" textLength="35" x="336" y="269.9561">Foo6</text><polygon fill="#181818" points="130.5,108.4297,140.5,112.4297,130.5,116.4297,134.5,112.4297" style="stroke:#181818;stroke-width:1.0;"/><line style="stroke:#181818;stroke-width:1.0;" x1="25.5" x2="136.5" y1="112.4297" y2="112.4297"/><text fill="#000000" font-family="sans-serif" font-size="13" lengthAdjust="spacing" textLength="93" x="32.5" y="107.3638">To boundary 1</text><polygon fill="#181818" points="185.5,137.5625,195.5,141.5625,185.5,145.5625,189.5,141.5625" style="stroke:#181818;stroke-width:1.0;"/><line style="stroke:#181818;stroke-width:1.0;" x1="25.5" x2="191.5" y1="141.5625" y2="141.5625"/><text fill="#000000" font-family="sans-serif" font-size="13" lengthAdjust="spacing" textLength="76" x="32.5" y="136.4966">To control 1</text><polygon fill="#181818" points="236,166.6953,246,170.6953,236,174.6953,240,170.6953" style="stroke:#181818;stroke-width:1.0;"/><line style="stroke:#181818;stroke-width:1.0;" x1="25.5" x2="242" y1="170.6953" y2="170.6953"/><text fill="#000000" font-family="sans-serif" font-size="13" lengthAdjust="spacing" textLength="57" x="32.5" y="165.6294">To entity</text><polygon fill="#181818" points="286.5,195.8281,296.5,199.8281,286.5,203.8281,290.5,199.8281" style="stroke:#181818;stroke-width:1.0;"/><line style="stroke:#181818;stroke-width:1.0;" x1="25.5" x2="292.5" y1="199.8281" y2="199.8281"/><text fill="#000000" font-family="sans-serif" font-size="13" lengthAdjust="spacing" textLength="80" x="32.5" y="194.7622">To database</text><polygon fill="#181818" points="343.5,224.9609,353.5,228.9609,343.5,232.9609,347.5,228.9609" style="stroke:#181818;stroke-width:1.0;"/><line style="stroke:#181818;stroke-width:1.0;" x1="25.5" x2="349.5" y1="228.9609" y2="228.9609"/><text fill="#000000" font-family="sans-serif" font-size="13" lengthAdjust="spacing" textLength="87" x="32.5" y="223.895">To collections</text><!--MD5=[c685698975d26d1bf0b683079d200beb]
@startuml
actor Foo1
boundary Foo2
control Foo3
entity Foo4
database Foo5
collections Foo6
Foo1 -> Foo2 : To boundary 1
Foo1 -> Foo3 : To control 1
Foo1 -> Foo4 : To entity
Foo1 -> Foo5 : To database
Foo1 -> Foo6 : To collections
@enduml

PlantUML version 1.2022.4beta2(Unknown compile time)
(GPL source distribution)
Java Runtime: Java(TM) SE Runtime Environment
JVM: Java HotSpot(TM) 64-Bit Server VM
Default Encoding: UTF-8
Language: en
Country: US
--></g></svg>