<?xml version="1.0" encoding="UTF-8" standalone="no"?><svg xmlns="http://www.w3.org/2000/svg" xmlns:xlink="http://www.w3.org/1999/xlink" contentStyleType="text/css" height="151px" preserveAspectRatio="none" style="width:727px;height:151px;background:#00000000;" version="1.1" viewBox="0 0 727 151" width="727px" zoomAndPan="magnify"><defs/><g><!--MD5=[ca5e029fbe4a04f960903eee89740330]
entity www.javanile.org--><g id="elem_www.javanile.org"><rect fill="#F1F1F1" height="39.2969" rx="2.5" ry="2.5" style="stroke:#181818;stroke-width:0.5;" width="151" x="553.5" y="7"/><polygon fill="#F1F1F1" points="687.5,12,687.5,26,699.5,26,699.5,18,693.5,12,687.5,12" style="stroke:#181818;stroke-width:0.5;"/><line style="stroke:#181818;stroke-width:0.5;" x1="693.5" x2="693.5" y1="12" y2="18"/><line style="stroke:#181818;stroke-width:0.5;" x1="699.5" x2="693.5" y1="18" y2="18"/><text fill="#000000" font-family="sans-serif" font-size="14" lengthAdjust="spacing" textLength="121" x="563.5" y="32.9951">www.javanile.org</text></g><!--MD5=[30dd37e566842873dfc463407840466a]
entity github.com/javanile--><g id="elem_github.com/javanile"><rect fill="#F1F1F1" height="39.2969" rx="2.5" ry="2.5" style="stroke:#181818;stroke-width:0.5;" width="172" x="543" y="106"/><polygon fill="#F1F1F1" points="698,111,698,125,710,125,710,117,704,111,698,111" style="stroke:#181818;stroke-width:0.5;"/><line style="stroke:#181818;stroke-width:0.5;" x1="704" x2="704" y1="111" y2="117"/><line style="stroke:#181818;stroke-width:0.5;" x1="710" x2="704" y1="117" y2="117"/><text fill="#000000" font-family="sans-serif" font-size="14" lengthAdjust="spacing" textLength="142" x="553" y="131.9951">github.com/javanile</text></g><!--MD5=[92304504875fcf1264b23e7d9d2a9ea1]
entity github.com/francescobianco--><g id="elem_github.com/francescobianco"><rect fill="#F1F1F1" height="39.2969" rx="2.5" ry="2.5" style="stroke:#181818;stroke-width:0.5;" width="236" x="7" y="7"/><polygon fill="#F1F1F1" points="226,12,226,26,238,26,238,18,232,12,226,12" style="stroke:#181818;stroke-width:0.5;"/><line style="stroke:#181818;stroke-width:0.5;" x1="232" x2="232" y1="12" y2="18"/><line style="stroke:#181818;stroke-width:0.5;" x1="238" x2="232" y1="18" y2="18"/><text fill="#000000" font-family="sans-serif" font-size="14" lengthAdjust="spacing" textLength="206" x="17" y="32.9951">github.com/francescobianco</text></g><!--MD5=[57accd1e9a9e04d906fb0d6e140ceaf9]
entity twitter.com/francescobianco--><g id="elem_twitter.com/francescobianco"><rect fill="#F1F1F1" height="39.2969" rx="2.5" ry="2.5" style="stroke:#181818;stroke-width:0.5;" width="240" x="278" y="7"/><polygon fill="#F1F1F1" points="501,12,501,26,513,26,513,18,507,12,501,12" style="stroke:#181818;stroke-width:0.5;"/><line style="stroke:#181818;stroke-width:0.5;" x1="507" x2="507" y1="12" y2="18"/><line style="stroke:#181818;stroke-width:0.5;" x1="513" x2="507" y1="18" y2="18"/><text fill="#000000" font-family="sans-serif" font-size="14" lengthAdjust="spacing" textLength="210" x="288" y="32.9951">twitter.com/francescobianco</text></g><!--MD5=[c778ebf107bd60e385cedf5bafad7936]
entity hardcode.blog--><g id="elem_hardcode.blog"><rect fill="#F1F1F1" height="39.2969" rx="2.5" ry="2.5" style="stroke:#181818;stroke-width:0.5;" width="134" x="58" y="106"/><polygon fill="#F1F1F1" points="175,111,175,125,187,125,187,117,181,111,175,111" style="stroke:#181818;stroke-width:0.5;"/><line style="stroke:#181818;stroke-width:0.5;" x1="181" x2="181" y1="111" y2="117"/><line style="stroke:#181818;stroke-width:0.5;" x1="187" x2="181" y1="117" y2="117"/><text fill="#000000" font-family="sans-serif" font-size="14" lengthAdjust="spacing" textLength="104" x="68" y="131.9951">hardcode.blog</text></g><!--MD5=[15353098e38023353bc458a516e3c309]
link www.javanile.org to github.com/javanile--><g id="link_www.javanile.org_github.com/javanile"><path d="M629,46.2026 C629,61.7688 629,84.021 629,100.8274 " fill="none" id="www.javanile.org-to-github.com/javanile" style="stroke:#181818;stroke-width:1.0;"/><polygon fill="#181818" points="629,105.8548,633,96.8548,629,100.8548,625,96.8548,629,105.8548" style="stroke:#181818;stroke-width:1.0;"/></g><!--MD5=[544d0449f6d501070f5e0f738aac74fc]
@startuml
skinparam backgroundcolor transparent

'== Assets =='

'- - Javanile - -'
artifact "www.javanile.org"
artifact "github.com/javanile"

'- - Francesco Bianco - -'
artifact "github.com/francescobianco"
artifact "twitter.com/francescobianco"
artifact "hardcode.blog"

'== Connections =='

[www.javanile.org] - -> [github.com/javanile]
@enduml

@startuml
skinparam backgroundcolor transparent


artifact "www.javanile.org"
artifact "github.com/javanile"

artifact "github.com/francescobianco"
artifact "twitter.com/francescobianco"
artifact "hardcode.blog"


[www.javanile.org] - -> [github.com/javanile]
@enduml

PlantUML version 1.2022.4beta2(Unknown compile time)
(GPL source distribution)
Java Runtime: Java(TM) SE Runtime Environment
JVM: Java HotSpot(TM) 64-Bit Server VM
Default Encoding: UTF-8
Language: en
Country: US
--></g></svg>